<?xml version='1.0' encoding='utf-8'?>
<svg xmlns="http://www.w3.org/2000/svg" enable-background="new 0 0 595.3 841.9" version="1.1" viewBox="0 0 595.3 841.9">
<style type="text/css">
	.st0{fill:#3C2415;}
	.st1{fill:url(#c);}
	.st2{fill:#FFFFFF;}
	.st3{fill:url(#d);}
</style>
<path class="st0" d="m219.9 358.1s-8.1-10.4-8.4-12.5 2.7 14.7-1.3 15.5c-4.1 0.7 9.7-3 9.7-3z"/>
<linearGradient id="c" x1="149.31" x2="449.07" y1="417.05" y2="417.05" gradientUnits="userSpaceOnUse">
	<stop stop-color="#594A42" offset="0"/>
	<stop stop-color="#726658" offset="1"/>
</linearGradient>
<path class="st1" d="m447 423.1c-9.2 3.7-19.5 2.1-27.6-3.4-10-6.7-4.7-21.3-15.4-30.5 8.2-6.6 16.7-17.2 12.2-28.2 1.6 10.2-7.8 19.7-17.1 22.5-6.6 2-16.7 0.4-24.1 0.8-20.7 1.1-41.3 2.9-61.9 0.2-21.2-2.8-42.9-6.4-63.5-12.1-7.3-2-9.2-4.5-13.7-10.6-2.8-3.8-12.4-13.6-12.4-18.5 0 17-22.6 20.8-35.2 25-12.9 4.3-25.9 8.3-39 12 13.2 16.6 34.4 15.2 53.5 15 8.6-0.1 18.2-1 24.6 4.8 9.2 8.3 16.8 21.2 24.1 31.3-27.8 7.9-44.2 30.6-35.9 58.8-3.2-24.4 10.1-42.9 35-47.2-0.3 0.1 7.8-1.5 8.2-1.1 3.8 3.4-5.2 16.4-6.8 19.3-5.9 10.9-13 21.2-22.1 29.8 13.1-8.1 23.9-19.4 33.3-31.5 2.4-3.1 6.1-12 9.1-14.3 0 0 14.1-3.9 19.1-5.2 32.8-8.9 65.7-18.1 99-24.8 0.7 19.5 15.6 33.5 33.4 38.9-12.9-7.5-23.5-20.2-21.8-35.9 13.1 11.2 32.6 15.6 47.1 4.2-0.7 0.1-1.4 0.4-2.1 0.7-0.3 0.1 1.3-0.6 0 0z"/>
<path d="m160.4 377.6l0.8-0.8c-7.4 2-12.4 3.3-12.4 3.3 1.4 3.1 4.4 5.5 8.3 7.4-3.3-2 1.1-7.5 3.3-9.9z"/>
<path d="m205.1 373.8c5.7 0 10.4-4 10.4-9 0-2.2-0.9-4.2-2.4-5.7-5.5 3.2-12.3 5.3-18.3 7.1 0.8 4.3 5.1 7.6 10.3 7.6z"/>
	<circle class="st2" cx="208.9" cy="365.9" r="2.8"/>
	<circle cx="209.9" cy="365.1" r="1.2"/>
	<circle class="st2" cx="202.7" cy="368.4" r="2.8"/>
	<circle cx="203.7" cy="367.6" r="1.2"/>
<path d="m193.7 386.8c-0.3 0.3-0.6 0.6-1 0.9l-1.2 0.9c-0.5 0.3-0.9 0.7-1.5 0.9-1 0.6-2.2 1.2-3.3 1.8-2.3 1.1-4.7 2.1-6.5 2.7-0.9 0.3-1.7 0.6-2.2 0.7-0.1 0-0.2 0.1-0.3 0.1 2 0.2 4.1 0.4 6.2 0.5 1.2-0.7 2.5-1.6 3.7-2.5 1.1-0.8 2.1-1.6 3.1-2.4 0.5-0.4 0.9-0.8 1.3-1.2s0.8-0.8 1.1-1.2 0.6-0.7 0.8-1.1c0.3-0.3 0.4-0.6 0.6-0.9 0.3-0.5 0.5-0.8 0.5-0.8s-0.2 0.2-0.6 0.7c-0.1 0.4-0.4 0.7-0.7 0.9z"/>
<circle cx="261.7" cy="395.5" r="2.7"/>
<circle cx="304.9" cy="410.8" r="9.2"/>
<path d="m304.4 390.4c5.1 0 9.4-2.4 10.7-5.7-0.7-0.1-1.3-0.1-2-0.2-6.6-0.9-13.2-1.8-19.8-2.9-0.1 0.3-0.1 0.6-0.1 0.9 0.1 4.4 5 7.9 11.2 7.9z"/>
<path d="m415.7 371.1c0.5 0 0.9-0.1 1.4-0.1 0.7-3.2 0.5-6.6-0.8-10 0.5 3.5-0.2 6.9-1.8 10 0.3 0.1 0.7 0.1 1.2 0.1z"/>
<path d="m396.9 386.9c0-1-0.2-2-0.5-2.9-4.8 0.7-10.6 0.3-16 0.2-0.3 0.8-0.4 1.7-0.4 2.7 0 4.7 3.8 8.5 8.5 8.5 4.6 0 8.4-3.8 8.4-8.5z"/>
<linearGradient id="d" x1="207.75" x2="422.43" y1="493.65" y2="493.65" gradientUnits="userSpaceOnUse">
	<stop stop-color="#414042" stop-opacity=".4" offset="0"/>
	<stop stop-color="#995A4E" stop-opacity="0" offset="1"/>
</linearGradient>
<ellipse class="st3" cx="315.1" cy="493.6" rx="107.3" ry="4.9"/>
</svg>